<svg width="17" height="17" viewBox="0 0 17 17" fill="none" xmlns="http://www.w3.org/2000/svg">
<mask id="mask0_14223_7970" style="mask-type:alpha" maskUnits="userSpaceOnUse" x="0" y="0" width="17" height="17">
<rect x="0.5" y="0.207031" width="16" height="16" fill="#D9D9D9"/>
</mask>
<g mask="url(#mask0_14223_7970)">
<path d="M2.73907 6.19124C2.73907 5.10466 2.73907 4.56194 3.07669 4.22433C3.4143 3.88672 3.95702 3.88672 5.0436 3.88672H11.9572C13.0437 3.88672 13.5865 3.88672 13.9241 4.22433C14.2617 4.56194 14.2617 5.10466 14.2617 6.19124C14.2617 6.4626 14.2617 6.59857 14.1776 6.68326C14.0929 6.76737 13.9563 6.76737 13.6856 6.76737H3.31521C3.04385 6.76737 2.90788 6.76737 2.82319 6.68326C2.73907 6.59857 2.73907 6.46202 2.73907 6.19124ZM2.73907 11.3764C2.73907 12.463 2.73907 13.0057 3.07669 13.3433C3.4143 13.6809 3.95702 13.6809 5.0436 13.6809H11.9572C13.0437 13.6809 13.5865 13.6809 13.9241 13.3433C14.2617 13.0057 14.2617 12.463 14.2617 11.3764V8.49576C14.2617 8.22441 14.2617 8.08844 14.1776 8.00375C14.0929 7.91963 13.9563 7.91963 13.6856 7.91963H3.31521C3.04385 7.91963 2.90788 7.91963 2.82319 8.00375C2.73907 8.08844 2.73907 8.22498 2.73907 8.49576V11.3764Z" fill="#191B1E"/>
<path d="M5.61975 2.73438V4.46277M11.3811 2.73438V4.46277" stroke="#191B1E" stroke-width="1.64609" stroke-linecap="round"/>
</g>
</svg>
