<svg width="21" height="20" viewBox="0 0 21 20" fill="none" xmlns="http://www.w3.org/2000/svg">
<path d="M2.74854 6.6491V14.6592C2.74854 16.2234 3.85991 16.8655 5.21003 16.0917L7.14465 14.9885C7.5645 14.7498 8.26426 14.7251 8.70058 14.9474L13.0226 17.1125C13.4589 17.3265 14.1587 17.3101 14.5785 17.0713L18.1432 15.0297C18.5959 14.7663 18.9746 14.1241 18.9746 13.5973V5.58712C18.9746 4.02296 17.8633 3.38083 16.5131 4.15468L14.5785 5.25782C14.1587 5.49656 13.4589 5.52126 13.0226 5.29898L8.70058 3.14209C8.26426 2.92804 7.5645 2.94451 7.14465 3.18325L3.58001 5.22489C3.11899 5.48833 2.74854 6.13046 2.74854 6.6491Z" stroke="#019B5B" stroke-width="1.5" stroke-linecap="round" stroke-linejoin="round"/>
<path d="M7.91028 3.53516V14.2373" stroke="#019B5B" stroke-width="1.5" stroke-linecap="round" stroke-linejoin="round"/>
<path d="M13.8129 5.69141V16.7064" stroke="#019B5B" stroke-width="1.5" stroke-linecap="round" stroke-linejoin="round"/>
</svg>
