<svg width="25" height="24" viewBox="0 0 25 24" fill="none" xmlns="http://www.w3.org/2000/svg">
<mask id="mask0_13191_10950" style="mask-type:alpha" maskUnits="userSpaceOnUse" x="0" y="0" width="25" height="24">
<rect x="0.5" width="24" height="24" fill="#D9D9D9"/>
</mask>
<g mask="url(#mask0_13191_10950)">
<path d="M10.0477 14.4598L11.4134 15.8256L15.0554 12.1836" stroke="#1C1C1C" stroke-width="1.5" stroke-linecap="round" stroke-linejoin="round"/>
<path d="M10.6773 6.53653H14.3193C16.1403 6.53653 16.1403 5.62603 16.1403 4.71553C16.1403 2.89453 15.2298 2.89453 14.3193 2.89453H10.6773C9.76679 2.89453 8.85629 2.89453 8.85629 4.71553C8.85629 6.53653 9.76679 6.53653 10.6773 6.53653Z" stroke="#1C1C1C" stroke-width="1.5" stroke-miterlimit="10" stroke-linecap="round" stroke-linejoin="round"/>
<path d="M16.142 4.73438C19.174 4.89826 20.6945 6.01818 20.6945 10.1792V15.6421C20.6945 19.2841 19.784 21.1051 15.2315 21.1051H9.7685C5.21601 21.1051 4.30551 19.2841 4.30551 15.6421V10.1792C4.30551 6.02728 5.82604 4.89826 8.858 4.73438" stroke="#1C1C1C" stroke-width="1.5" stroke-miterlimit="10" stroke-linecap="round" stroke-linejoin="round"/>
</g>
</svg>
