<svg width="25" height="24" viewBox="0 0 25 24" fill="none" xmlns="http://www.w3.org/2000/svg">
<mask id="mask0_13191_10911" style="mask-type:alpha" maskUnits="userSpaceOnUse" x="0" y="0" width="25" height="24">
<rect x="0.5" width="24" height="24" fill="#D9D9D9"/>
</mask>
<g mask="url(#mask0_13191_10911)">
<path d="M15.4396 16.592C14.1267 16.5904 12.8401 16.2249 11.7233 15.5364C10.6065 14.8478 9.70343 13.8634 9.11488 12.6928C8.52634 11.5221 8.27544 10.2114 8.39017 8.90687C8.50491 7.60231 8.98078 6.3552 9.76468 5.30469C8.80342 6.00595 8.02312 6.92514 7.48812 7.98642C6.95313 9.04771 6.67878 10.2207 6.68771 11.4085C6.69102 13.3164 7.41534 15.1529 8.71615 16.5516C10.017 17.9503 11.7986 18.8085 13.7057 18.9549C15.6128 19.1013 17.5052 18.525 19.0051 17.3412C20.5051 16.1575 21.5026 14.453 21.7984 12.5681C21.2309 13.7718 20.3315 14.7894 19.2054 15.502C18.0794 16.2146 16.7731 16.5927 15.4396 16.592Z" fill="#019B5B"/>
<path d="M14.0762 20.6884C11.6372 20.6884 9.29811 19.722 7.57346 18.0017C5.84883 16.2814 4.87992 13.9482 4.87992 11.5154C4.87992 9.08257 5.84883 6.74939 7.57346 5.02911C9.29811 3.30884 11.6372 2.3424 14.0762 2.3424C15.0036 2.33706 15.9263 2.47511 16.8112 2.75165C15.4868 2.12333 14.0387 1.79717 12.5721 1.79688C10.9241 1.80168 9.3029 2.21268 7.8526 2.9933C6.40229 3.77392 5.16789 4.89997 4.25918 6.2713C3.35047 7.64262 2.79562 9.21669 2.64398 10.8535C2.49235 12.4904 2.74863 14.1392 3.39004 15.6534C4.03145 17.1675 5.03808 18.5002 6.32042 19.5327C7.60276 20.5652 9.12106 21.2656 10.7402 21.5714C12.3594 21.8774 14.0293 21.7795 15.6014 21.2863C17.1734 20.7931 18.599 19.9201 19.7512 18.7447C18.1333 20.0124 16.1335 20.6974 14.0762 20.6884Z" fill="#019B5B"/>
<path d="M19.7228 4.96928C20.2442 5.6962 20.5454 6.55729 20.5902 7.45005C20.6351 8.34279 20.4219 9.22962 19.9759 10.0049C19.5299 10.7803 18.87 11.4114 18.0747 11.8233C17.2793 12.2352 16.3821 12.4105 15.4897 12.3283C14.5974 12.246 13.7475 11.9098 13.0413 11.3595C12.3351 10.8093 11.8022 10.0682 11.5062 9.2245C11.2101 8.38081 11.1634 7.47003 11.3715 6.60058C11.5796 5.73114 12.0337 4.93964 12.6799 4.32031C11.8854 4.8601 11.2443 5.59555 10.8187 6.45531C10.393 7.31507 10.1974 8.26995 10.2508 9.22733C10.3041 10.1847 10.6047 11.1121 11.1232 11.9195C11.6417 12.7269 12.3606 13.387 13.2102 13.8356C14.0598 14.2842 15.0112 14.5062 15.972 14.4801C16.9331 14.4539 17.8709 14.1805 18.6947 13.6863C19.5185 13.1921 20.2002 12.4939 20.6738 11.6595C21.1474 10.8251 21.3967 9.8827 21.3976 8.92384C21.3862 7.43646 20.784 6.0143 19.7228 4.96928Z" fill="#019B5B"/>
</g>
</svg>
